<svg id="eKNW0JLBCfk1" xmlns="http://www.w3.org/2000/svg" xmlns:xlink="http://www.w3.org/1999/xlink" viewBox="0 0 410 220" shape-rendering="geometricPrecision" text-rendering="geometricPrecision">
<style><![CDATA[
#eKNW0JLBCfk39_to {animation: eKNW0JLBCfk39_to__to 2500ms linear 1 normal forwards}@keyframes eKNW0JLBCfk39_to__to { 0% {offset-distance: 0%;animation-timing-function: cubic-bezier(0.25,1,0.25,1)} 100% {offset-distance: 100%}}
]]></style>
<defs><path id="eKNW0JLBCfk2" d="M128.32,139.43l23.9,31.16-2.03,7.75h-.05l-11.46,43.44-20.83,78.75c-3.26,9.06-8.25,15.84-14.9,20.2-8,5.24-13.22,4.2-18.29,4.12-1.69-.03-8.66-.99-15.13-3.63l-22.32,29.1c16.29,8.71,32.78,8.86,47.65,6.55c9.81-1.53,19.28-5.1,27.59-10.55c10.01-6.56,23.09-19.06,30.09-41.77l7-26.17l36.42-138.94h-67.64v-.01Z"/><linearGradient id="eKNW0JLBCfk5-fill" x1="121.0148" y1="248.7775" x2="461.9334" y2="248.7775" spreadMethod="pad" gradientUnits="userSpaceOnUse" gradientTransform="translate(0 0)"><stop id="eKNW0JLBCfk5-fill-0" offset="0%" stop-color="#ffd200"/><stop id="eKNW0JLBCfk5-fill-1" offset="11.43%" stop-color="#ffcc02"/><stop id="eKNW0JLBCfk5-fill-2" offset="27.1%" stop-color="#ffba09"/><stop id="eKNW0JLBCfk5-fill-3" offset="45.3%" stop-color="#ff9d13"/><stop id="eKNW0JLBCfk5-fill-4" offset="65.39%" stop-color="#ff7421"/><stop id="eKNW0JLBCfk5-fill-5" offset="86.82%" stop-color="#ff4034"/><stop id="eKNW0JLBCfk5-fill-6" offset="93.6%" stop-color="#ff2e3a"/></linearGradient><linearGradient id="eKNW0JLBCfk6-fill" x1="121.0152" y1="224.4799" x2="461.9334" y2="224.4799" spreadMethod="pad" gradientUnits="userSpaceOnUse" gradientTransform="translate(0 0)"><stop id="eKNW0JLBCfk6-fill-0" offset="0%" stop-color="#ffd200"/><stop id="eKNW0JLBCfk6-fill-1" offset="11.43%" stop-color="#ffcc02"/><stop id="eKNW0JLBCfk6-fill-2" offset="27.1%" stop-color="#ffba09"/><stop id="eKNW0JLBCfk6-fill-3" offset="45.3%" stop-color="#ff9d13"/><stop id="eKNW0JLBCfk6-fill-4" offset="65.39%" stop-color="#ff7421"/><stop id="eKNW0JLBCfk6-fill-5" offset="86.82%" stop-color="#ff4034"/><stop id="eKNW0JLBCfk6-fill-6" offset="93.6%" stop-color="#ff2e3a"/></linearGradient><linearGradient id="eKNW0JLBCfk7-fill" x1="225.3738" y1="222.2744" x2="254.3738" y2="120.2744" spreadMethod="pad" gradientUnits="userSpaceOnUse" gradientTransform="translate(0 0)"><stop id="eKNW0JLBCfk7-fill-0" offset="0%" stop-color="rgba(252,181,0,0)"/><stop id="eKNW0JLBCfk7-fill-1" offset="82.5%" stop-color="#000"/></linearGradient><linearGradient id="eKNW0JLBCfk25-fill" x1="89.263733" y1="242.610803" x2="166.934101" y2="264.181471" spreadMethod="pad" gradientUnits="userSpaceOnUse" gradientTransform="translate(0 0)"><stop id="eKNW0JLBCfk25-fill-0" offset="23.05%" stop-color="rgba(0,0,0,0)"/><stop id="eKNW0JLBCfk25-fill-1" offset="32.47%" stop-color="rgba(70,70,70,0.2502)"/><stop id="eKNW0JLBCfk25-fill-2" offset="46.4%" stop-color="rgba(169,169,169,0.62)"/><stop id="eKNW0JLBCfk25-fill-3" offset="56.13%" stop-color="rgba(231,231,231,0.8781)"/><stop id="eKNW0JLBCfk25-fill-4" offset="60.72%" stop-color="#fff"/><stop id="eKNW0JLBCfk25-fill-5" offset="63.52%" stop-color="rgba(249,249,249,0.9088)"/><stop id="eKNW0JLBCfk25-fill-6" offset="67.38%" stop-color="rgba(231,231,231,0.7828)"/><stop id="eKNW0JLBCfk25-fill-7" offset="71.87%" stop-color="rgba(202,202,202,0.6366)"/><stop id="eKNW0JLBCfk25-fill-8" offset="76.83%" stop-color="rgba(161,161,161,0.4752)"/><stop id="eKNW0JLBCfk25-fill-9" offset="82.17%" stop-color="rgba(108,108,108,0.3011)"/><stop id="eKNW0JLBCfk25-fill-10" offset="87.75%" stop-color="rgba(45,45,45,0.1194)"/><stop id="eKNW0JLBCfk25-fill-11" offset="91.41%" stop-color="rgba(0,0,0,0)"/></linearGradient><linearGradient id="eKNW0JLBCfk33-fill" x1="286.6355" y1="155.7826" x2="391.6555" y2="154.2026" spreadMethod="pad" gradientUnits="userSpaceOnUse" gradientTransform="translate(0 0)"><stop id="eKNW0JLBCfk33-fill-0" offset="4.5%" stop-color="#481609"/><stop id="eKNW0JLBCfk33-fill-1" offset="68%" stop-color="#e84a1c"/><stop id="eKNW0JLBCfk33-fill-2" offset="100%" stop-color="rgba(255,61,52,0)"/></linearGradient><filter id="eKNW0JLBCfk35-filter" x="-150%" width="400%" y="-150%" height="400%"><feColorMatrix id="eKNW0JLBCfk35-filter-grayscale-0" type="matrix" values="1 0 0 0 0 0 1 0 0 0 0 0 1 0 0 0 0 0 1 0" result="result"/></filter><filter id="eKNW0JLBCfk37-filter" x="-150%" width="400%" y="-150%" height="400%"><feColorMatrix id="eKNW0JLBCfk37-filter-grayscale-0" type="matrix" values="1 0 0 0 0 0 1 0 0 0 0 0 1 0 0 0 0 0 1 0" result="result"/></filter><filter id="eKNW0JLBCfk39-filter" x="-150%" width="400%" y="-150%" height="400%"><feGaussianBlur id="eKNW0JLBCfk39-filter-blur-0" stdDeviation="20,20" result="result"/></filter><linearGradient id="eKNW0JLBCfk42-fill" x1="121.0148" y1="248.7775" x2="461.9334" y2="248.7775" spreadMethod="pad" gradientUnits="userSpaceOnUse" gradientTransform="translate(0 0)"><stop id="eKNW0JLBCfk42-fill-0" offset="0%" stop-color="#ffd200"/><stop id="eKNW0JLBCfk42-fill-1" offset="11.43%" stop-color="#ffcc02"/><stop id="eKNW0JLBCfk42-fill-2" offset="27.1%" stop-color="#ffba09"/><stop id="eKNW0JLBCfk42-fill-3" offset="45.3%" stop-color="#ff9d13"/><stop id="eKNW0JLBCfk42-fill-4" offset="65.39%" stop-color="#ff7421"/><stop id="eKNW0JLBCfk42-fill-5" offset="86.82%" stop-color="#ff4034"/><stop id="eKNW0JLBCfk42-fill-6" offset="93.6%" stop-color="#ff2e3a"/></linearGradient><linearGradient id="eKNW0JLBCfk43-fill" x1="121.0152" y1="224.4799" x2="461.9334" y2="224.4799" spreadMethod="pad" gradientUnits="userSpaceOnUse" gradientTransform="translate(0 0)"><stop id="eKNW0JLBCfk43-fill-0" offset="0%" stop-color="#ffd200"/><stop id="eKNW0JLBCfk43-fill-1" offset="11.43%" stop-color="#ffcc02"/><stop id="eKNW0JLBCfk43-fill-2" offset="27.1%" stop-color="#ffba09"/><stop id="eKNW0JLBCfk43-fill-3" offset="45.3%" stop-color="#ff9d13"/><stop id="eKNW0JLBCfk43-fill-4" offset="65.39%" stop-color="#ff7421"/><stop id="eKNW0JLBCfk43-fill-5" offset="86.82%" stop-color="#ff4034"/><stop id="eKNW0JLBCfk43-fill-6" offset="93.6%" stop-color="#ff2e3a"/></linearGradient><linearGradient id="eKNW0JLBCfk44-fill" x1="225.3738" y1="222.2744" x2="254.3738" y2="120.2744" spreadMethod="pad" gradientUnits="userSpaceOnUse" gradientTransform="translate(0 0)"><stop id="eKNW0JLBCfk44-fill-0" offset="0%" stop-color="rgba(252,181,0,0)"/><stop id="eKNW0JLBCfk44-fill-1" offset="82.5%" stop-color="#000"/></linearGradient></defs><g transform="translate(-47.669998-67.230965)"><g transform="translate(0-72.199026)"><path d="M128.78,139.43l23.9,31.16-2.03,7.75h-.05l-11.46,43.44-20.83,78.75c-3.26,9.06-8.25,15.84-14.9,20.2-8,5.24-13.22,4.2-18.29,4.12-1.69-.03-8.66-.99-15.13-3.63L47.67,350.33c16.29,8.71,32.78,8.86,47.65,6.55c9.81-1.53,19.28-5.1,27.59-10.55c10.01-6.56,23.09-19.06,30.09-41.77l7-26.17l36.42-138.94h-67.64v-.02Z" fill="url(#eKNW0JLBCfk5-fill)"/><path d="M450.71,190.17c1.62-14.1-3.79-26.39-11.9-35.55-6.14-6.93-17.94-15.19-39.28-15.19h-101.37-34.17-32.19-1.43v0h-31.92l23.9,31.16-37.4,138.94h34.07v0h17.02h139.21c14.58,0,29.25-4.69,41.31-13.2c13.54-9.56,21.89-22.59,23.51-36.7c1.58-13.77-1.68-25.82-9.39-34.91c10.14-9.1,18.51-21.3,20.03-34.55ZM320.56,221.78c-2.17,8.22-7.84,23.94-21.51,36.88-13.82,13.08-35.02,19.72-57.62,19.72h-14.47L255.97,170.6h19.39h2.74c18.95,0,31.99,4.57,38.76,13.58c9.1,12.09,5.62,30.32,3.7,37.6m87.14,37.2c-1.79,9.97-15.59,19.39-30.38,19.39h-55.77c12.84-12.82,20.48-27.03,24.96-38.31h40.98c8.28,0,13.58,1.09,17.5,5.81c2.59,3.11,3.54,8.46,2.71,13.11Zm9.96-69.66c-1.32,11.53-11.71,19.58-25.25,19.58h-1.53c-.01,0-.02,0-.03,0h-36.95c.9-11.82-.31-25.72-7.25-38.31h50.15c8.29,0,14.15,2.15,17.49,5.92c2.68,3.03,4.01,7.24,3.37,12.81Z" fill="url(#eKNW0JLBCfk6-fill)"/><path d="M222.17,170.75l-37.4,138.94h33.6l37.41-138.94h-33.61Z" fill="url(#eKNW0JLBCfk7-fill)"/></g><g transform="translate(0-72.199026)"><path d="M186.21,352.22c0,1.91,0,5.19-2.85,6.33-1.12.45-2.56.49-3.71.38v-3.01c.16.05.27.07.49.07.59,0,1.37-.16,1.82-.94.27-.43.4-.94.4-3.17v-12.69h3.84v13.03h.01Z" fill="#fff"/><path d="M207.94,347.53c0,1.21-.02,3.12-1.33,4.72-1.57,1.89-4.09,2.47-6.44,2.47-1.19,0-4.38-.05-6.45-2.72-.6-.81-1.17-1.89-1.17-4.36v-8.44h3.87v7.59c0,.63,0,1.53.27,2.38.5,1.71,2.04,2.47,3.55,2.47c2.22,0,3.26-1.46,3.57-2.25.27-.68.27-1.26.27-2.61v-7.59h3.87v8.34h-.01Z" fill="#fff"/><path d="M224.6,343.33c-1.06-.52-2.97-1.48-4.92-1.48-2.25,0-2.31,1.1-2.31,1.26c0,.92,1.5,1.46,3.71,2.25c1.93.7,4.22,1.86,4.22,4.83c0,3.55-3.71,4.54-6,4.54-2.58,0-5.03-1.21-5.41-1.48v-3.3c1.32.83,3.08,1.91,5.32,1.91.49,0,2.29-.02,2.29-1.39c0-1.01-.88-1.33-2.9-2.02-2.2-.76-4.99-1.84-4.99-5.07c0-2.34,1.96-4.36,5.8-4.36c1.21,0,2.74.14,5.19,1.19v3.12Z" fill="#fff"/><path d="M244.83,342.07h-5.52v12.44h-3.89v-12.44h-5.55v-2.87h14.96v2.87Z" fill="#fff"/><path d="M265.89,339.19c.99,0,2.4,0,4.16.61c1.21.43,4.9,2.29,4.9,7.03c0,1.53-.38,4.72-3.73,6.53-1.46.79-2.94,1.15-5.62,1.15h-5.95v-15.32h6.24Zm-2.38,2.92v9.48h1.55c2.14,0,2.74-.18,3.37-.45c1.55-.67,2.56-2.16,2.56-4.33c0-1.66-.61-3.48-2.58-4.29-.99-.4-1.93-.4-2.97-.4h-1.93v-.01Z" fill="#fff"/><path d="M288.56,354.71c-5.3,0-8.74-3.84-8.74-7.84c0-3.57,2.97-7.88,8.81-7.88c5.41,0,8.78,3.89,8.78,7.88c0,3.55-2.89,7.84-8.85,7.84Zm.05-12.46c-2.74,0-4.8,1.66-4.8,4.69c0,3.66,3,4.67,4.83,4.67c2.45,0,4.83-1.62,4.83-4.65-.01-2.85-1.87-4.71-4.86-4.71Z" fill="#fff"/><path d="M326.23,342.07h-5.53v12.44h-3.89v-12.44h-5.55v-2.87h14.96v2.87h.01Z" fill="#fff"/><path d="M346.96,354.51h-3.84v-6.2h-7.59v6.2h-3.87v-15.32h3.87v6.15h7.59v-6.15h3.84v15.32Z" fill="#fff"/><path d="M364.78,354.51h-11.3v-15.32h11.14v2.85h-7.27v3.1h6.94v2.87h-6.94v3.68h7.43v2.82Z" fill="#fff"/><path d="M386.04,339.19c1.1,0,1.95,0,2.99.29c2,.59,2.92,2.18,2.92,3.53c0,1.1-.66,2.36-2.07,3.08.81.25,3.23,1.01,3.23,3.95c0,1.35-.5,2.81-2.18,3.75-1.03.58-1.95.72-3.68.72h-7.05v-15.32h5.84Zm-1.95,2.74v3.35h1.44c.87,0,2.58,0,2.58-1.69c0-1.66-1.69-1.66-2.52-1.66h-1.5Zm0,6.11v3.68h1.88c1.33,0,3.21,0,3.21-1.82c0-1.86-1.82-1.86-3.39-1.86h-1.7Z" fill="#fff"/><path d="M410.3,354.51h-11.3v-15.32h11.14v2.85h-7.27v3.1h6.94v2.87h-6.94v3.68h7.43v2.82Z" fill="#fff"/><path d="M426.58,343.33c-1.05-.52-2.96-1.48-4.92-1.48-2.25,0-2.31,1.1-2.31,1.26c0,.92,1.5,1.46,3.71,2.25c1.93.7,4.22,1.86,4.22,4.83c0,3.55-3.71,4.54-6,4.54-2.59,0-5.03-1.21-5.41-1.48v-3.3c1.33.83,3.08,1.91,5.32,1.91.5,0,2.3-.02,2.3-1.39c0-1.01-.88-1.33-2.9-2.02-2.2-.76-4.99-1.84-4.99-5.07c0-2.34,1.95-4.36,5.8-4.36c1.21,0,2.74.14,5.18,1.19v3.12Z" fill="#fff"/><path d="M446.81,342.07h-5.53v12.44h-3.88v-12.44h-5.55v-2.87h14.96v2.87Z" fill="#fff"/></g><g transform="translate(0-72.199025)"><g display="none"><g clip-path="url(#eKNW0JLBCfk26)"><polygon points="113.81,424.26 59.61,409.33 149.08,84.43 203.29,99.35" fill="url(#eKNW0JLBCfk25-fill)"/><clipPath id="eKNW0JLBCfk26"><use width="148.75" height="218.704102" xlink:href="#eKNW0JLBCfk2"/></clipPath></g></g><path d="M450.26,190.17c1.62-14.1-3.79-26.39-11.9-35.55-6.14-6.93-17.94-15.19-39.28-15.19h-9.98v0h-91.4-11.5v0h-22.66-32.18-1.43v0h-31.93l23.9,31.16-37.4,138.94v0v0h33.6v0h.46h17.02h139.21c14.58,0,29.25-4.69,41.31-13.2c13.54-9.56,21.89-22.59,23.51-36.7c1.58-13.77-1.68-25.82-9.39-34.91c10.15-9.1,18.52-21.3,20.04-34.55ZM320.1,221.78c-2.17,8.22-7.84,23.94-21.51,36.88-13.82,13.08-35.02,19.72-57.62,19.72h-14.47L255.51,170.6h19.39h2.74c18.95,0,31.99,4.57,38.76,13.58c9.1,12.09,5.62,30.32,3.7,37.6v0Zm87.15,37.2c-1.79,9.97-15.59,19.39-30.38,19.39h-55.77c12.84-12.82,20.48-27.03,24.96-38.31h40.98c8.28,0,13.58,1.09,17.5,5.81c2.58,3.11,3.54,8.46,2.71,13.11Zm9.96-69.66c-1.32,11.53-11.71,19.58-25.25,19.58h-1.53c-.01,0-.02,0-.03,0h-36.96c.9-11.82-.31-25.72-7.25-38.31v0h42.9v0v0h7.26c8.29,0,14.15,2.15,17.49,5.92c2.68,3.03,4.01,7.24,3.37,12.81Z" fill="none"/></g><g transform="translate(0-72.199025)" mask="url(#eKNW0JLBCfk36)"><g><g mask="url(#eKNW0JLBCfk34)"><g><path d="M389.52,139.43h-102.9v31.16h102.9v-31.16Z" fill="url(#eKNW0JLBCfk33-fill)"/></g><mask id="eKNW0JLBCfk34" mask-type="luminance" x="-150%" y="-150%" height="400%" width="400%"><path d="M298.13,139.43h-11.51c30.38,0,43.93,10.3,53.9,22.19c2.42,2.89,4.41,5.91,6.1,8.98h42.9v-31.17h-91.39Z" filter="url(#eKNW0JLBCfk35-filter)" fill="#fff"/></mask></g></g><mask id="eKNW0JLBCfk36" mask-type="luminance" x="-150%" y="-150%" height="400%" width="400%"><path d="M389.52,139.43h-102.9v31.16h102.9v-31.16Z" filter="url(#eKNW0JLBCfk37-filter)" fill="#fff"/></mask></g></g><g transform="translate(-47.560549-139.766631)" mask="url(#eKNW0JLBCfk40)"><g id="eKNW0JLBCfk39_to" style="offset-path:path('M-68.141791,359.766631C217.319289,359.766632,278.642639,139.386623,594.011525,187.156938');offset-rotate:0deg"><ellipse rx="61.760613" ry="121.781489" transform="rotate(-25.385356) scale(1.295097,1.272196) translate(0,0)" filter="url(#eKNW0JLBCfk39-filter)" fill="#fff" stroke-width="0"/></g><mask id="eKNW0JLBCfk40" mask-type="luminance" x="-150%" y="-150%" height="400%" width="400%"><g><path d="M128.78,139.43l23.9,31.16-2.03,7.75h-.05l-11.46,43.44-20.83,78.75c-3.26,9.06-8.25,15.84-14.9,20.2-8,5.24-13.22,4.2-18.29,4.12-1.69-.03-8.66-.99-15.13-3.63L47.67,350.33c16.29,8.71,32.78,8.86,47.65,6.55c9.81-1.53,19.28-5.1,27.59-10.55c10.01-6.56,23.09-19.06,30.09-41.77l7-26.17l36.42-138.94h-67.64v-.02Z" fill="url(#eKNW0JLBCfk42-fill)"/><path d="M450.71,190.17c1.62-14.1-3.79-26.39-11.9-35.55-6.14-6.93-17.94-15.19-39.28-15.19h-101.37-34.17-32.19-1.43v0h-31.92l23.9,31.16-37.4,138.94h34.07v0h17.02h139.21c14.58,0,29.25-4.69,41.31-13.2c13.54-9.56,21.89-22.59,23.51-36.7c1.58-13.77-1.68-25.82-9.39-34.91c10.14-9.1,18.51-21.3,20.03-34.55ZM320.56,221.78c-2.17,8.22-7.84,23.94-21.51,36.88-13.82,13.08-35.02,19.72-57.62,19.72h-14.47L255.97,170.6h19.39h2.74c18.95,0,31.99,4.57,38.76,13.58c9.1,12.09,5.62,30.32,3.7,37.6m87.14,37.2c-1.79,9.97-15.59,19.39-30.38,19.39h-55.77c12.84-12.82,20.48-27.03,24.96-38.31h40.98c8.28,0,13.58,1.09,17.5,5.81c2.59,3.11,3.54,8.46,2.71,13.11Zm9.96-69.66c-1.32,11.53-11.71,19.58-25.25,19.58h-1.53c-.01,0-.02,0-.03,0h-36.95c.9-11.82-.31-25.72-7.25-38.31h50.15c8.29,0,14.15,2.15,17.49,5.92c2.68,3.03,4.01,7.24,3.37,12.81Z" fill="url(#eKNW0JLBCfk43-fill)"/><path d="M222.17,170.75l-37.4,138.94h33.6l37.41-138.94h-33.61Z" fill="url(#eKNW0JLBCfk44-fill)"/></g></mask></g></svg>
